<svg width="240" height="44" viewBox="0 0 240 44" fill="none" xmlns="http://www.w3.org/2000/svg">
<path d="M27 22H30L20 13L10 22H13V30H15V28H25V30H27V22ZM15.21 20H24.79L25 20.19V22H15V20.19L15.21 20ZM22.57 18H17.43L20 15.69L22.57 18ZM15 26V24H25V26H15Z" fill="#5946D2"/>
<path d="M53.8359 15.625V27H51.8906V15.625H53.8359ZM57.4062 15.625V17.1875H48.3516V15.625H57.4062ZM62.9375 25.3047V21.2734C62.9375 20.9714 62.8828 20.7109 62.7734 20.4922C62.6641 20.2734 62.4974 20.1042 62.2734 19.9844C62.0547 19.8646 61.7786 19.8047 61.4453 19.8047C61.138 19.8047 60.8724 19.8568 60.6484 19.9609C60.4245 20.0651 60.25 20.2057 60.125 20.3828C60 20.5599 59.9375 20.7604 59.9375 20.9844H58.0625C58.0625 20.651 58.1432 20.3281 58.3047 20.0156C58.4661 19.7031 58.7005 19.4245 59.0078 19.1797C59.3151 18.9349 59.6823 18.7422 60.1094 18.6016C60.5365 18.4609 61.0156 18.3906 61.5469 18.3906C62.1823 18.3906 62.7448 18.4974 63.2344 18.7109C63.7292 18.9245 64.1172 19.2474 64.3984 19.6797C64.6849 20.1068 64.8281 20.6432 64.8281 21.2891V25.0469C64.8281 25.4323 64.8542 25.7786 64.9062 26.0859C64.9635 26.388 65.0443 26.651 65.1484 26.875V27H63.2188C63.1302 26.7969 63.0599 26.5391 63.0078 26.2266C62.9609 25.9089 62.9375 25.6016 62.9375 25.3047ZM63.2109 21.8594L63.2266 23.0234H61.875C61.526 23.0234 61.2188 23.0573 60.9531 23.125C60.6875 23.1875 60.4661 23.2812 60.2891 23.4062C60.112 23.5312 59.9792 23.6823 59.8906 23.8594C59.8021 24.0365 59.7578 24.237 59.7578 24.4609C59.7578 24.6849 59.8099 24.8906 59.9141 25.0781C60.0182 25.2604 60.1693 25.4036 60.3672 25.5078C60.5703 25.612 60.8151 25.6641 61.1016 25.6641C61.487 25.6641 61.8229 25.5859 62.1094 25.4297C62.401 25.2682 62.6302 25.0729 62.7969 24.8438C62.9635 24.6094 63.0521 24.388 63.0625 24.1797L63.6719 25.0156C63.6094 25.2292 63.5026 25.4583 63.3516 25.7031C63.2005 25.9479 63.0026 26.1823 62.7578 26.4062C62.5182 26.625 62.2292 26.8047 61.8906 26.9453C61.5573 27.0859 61.1719 27.1562 60.7344 27.1562C60.1823 27.1562 59.6901 27.0469 59.2578 26.8281C58.8255 26.6042 58.487 26.3047 58.2422 25.9297C57.9974 25.5495 57.875 25.1198 57.875 24.6406C57.875 24.1927 57.9583 23.7969 58.125 23.4531C58.2969 23.1042 58.5469 22.8125 58.875 22.5781C59.2083 22.3438 59.6146 22.1667 60.0938 22.0469C60.5729 21.9219 61.1198 21.8594 61.7344 21.8594H63.2109ZM72.0391 24.7109C72.0391 24.5234 71.9922 24.3542 71.8984 24.2031C71.8047 24.0469 71.625 23.9062 71.3594 23.7812C71.099 23.6562 70.7135 23.5417 70.2031 23.4375C69.7552 23.3385 69.3438 23.2214 68.9688 23.0859C68.599 22.9453 68.2812 22.776 68.0156 22.5781C67.75 22.3802 67.5443 22.1458 67.3984 21.875C67.2526 21.6042 67.1797 21.2917 67.1797 20.9375C67.1797 20.5938 67.2552 20.2682 67.4062 19.9609C67.5573 19.6536 67.7734 19.3828 68.0547 19.1484C68.3359 18.9141 68.6771 18.7292 69.0781 18.5938C69.4844 18.4583 69.9375 18.3906 70.4375 18.3906C71.1458 18.3906 71.7526 18.5104 72.2578 18.75C72.7682 18.9844 73.1589 19.3047 73.4297 19.7109C73.7005 20.112 73.8359 20.5651 73.8359 21.0703H71.9531C71.9531 20.8464 71.8958 20.638 71.7812 20.4453C71.6719 20.2474 71.5052 20.0885 71.2812 19.9688C71.0573 19.8438 70.776 19.7812 70.4375 19.7812C70.1146 19.7812 69.8464 19.8333 69.6328 19.9375C69.4245 20.0365 69.2682 20.1667 69.1641 20.3281C69.0651 20.4896 69.0156 20.6667 69.0156 20.8594C69.0156 21 69.0417 21.1276 69.0938 21.2422C69.151 21.3516 69.2448 21.4531 69.375 21.5469C69.5052 21.6354 69.6823 21.7188 69.9062 21.7969C70.1354 21.875 70.4219 21.9505 70.7656 22.0234C71.4115 22.1589 71.9661 22.3333 72.4297 22.5469C72.8984 22.7552 73.2578 23.026 73.5078 23.3594C73.7578 23.6875 73.8828 24.1042 73.8828 24.6094C73.8828 24.9844 73.8021 25.3281 73.6406 25.6406C73.4844 25.9479 73.2552 26.2161 72.9531 26.4453C72.651 26.6693 72.2891 26.8438 71.8672 26.9688C71.4505 27.0938 70.9818 27.1562 70.4609 27.1562C69.6953 27.1562 69.0469 27.0208 68.5156 26.75C67.9844 26.474 67.5807 26.1224 67.3047 25.6953C67.0339 25.263 66.8984 24.8151 66.8984 24.3516H68.7188C68.7396 24.7005 68.8359 24.9792 69.0078 25.1875C69.1849 25.3906 69.4036 25.5391 69.6641 25.6328C69.9297 25.7214 70.2031 25.7656 70.4844 25.7656C70.8229 25.7656 71.1068 25.7214 71.3359 25.6328C71.5651 25.5391 71.7396 25.4141 71.8594 25.2578C71.9792 25.0964 72.0391 24.9141 72.0391 24.7109ZM77.9297 15V27H76.0391V15H77.9297ZM83.1797 18.5469L79.5 22.625L77.4844 24.6875L76.9922 23.0938L78.5156 21.2109L80.9062 18.5469H83.1797ZM81.3125 27L78.5703 23.0312L79.7578 21.7109L83.4922 27H81.3125ZM89.6172 24.7109C89.6172 24.5234 89.5703 24.3542 89.4766 24.2031C89.3828 24.0469 89.2031 23.9062 88.9375 23.7812C88.6771 23.6562 88.2917 23.5417 87.7812 23.4375C87.3333 23.3385 86.9219 23.2214 86.5469 23.0859C86.1771 22.9453 85.8594 22.776 85.5938 22.5781C85.3281 22.3802 85.1224 22.1458 84.9766 21.875C84.8307 21.6042 84.7578 21.2917 84.7578 20.9375C84.7578 20.5938 84.8333 20.2682 84.9844 19.9609C85.1354 19.6536 85.3516 19.3828 85.6328 19.1484C85.9141 18.9141 86.2552 18.7292 86.6562 18.5938C87.0625 18.4583 87.5156 18.3906 88.0156 18.3906C88.724 18.3906 89.3307 18.5104 89.8359 18.75C90.3464 18.9844 90.737 19.3047 91.0078 19.7109C91.2786 20.112 91.4141 20.5651 91.4141 21.0703H89.5312C89.5312 20.8464 89.474 20.638 89.3594 20.4453C89.25 20.2474 89.0833 20.0885 88.8594 19.9688C88.6354 19.8438 88.3542 19.7812 88.0156 19.7812C87.6927 19.7812 87.4245 19.8333 87.2109 19.9375C87.0026 20.0365 86.8464 20.1667 86.7422 20.3281C86.6432 20.4896 86.5938 20.6667 86.5938 20.8594C86.5938 21 86.6198 21.1276 86.6719 21.2422C86.7292 21.3516 86.8229 21.4531 86.9531 21.5469C87.0833 21.6354 87.2604 21.7188 87.4844 21.7969C87.7135 21.875 88 21.9505 88.3438 22.0234C88.9896 22.1589 89.5443 22.3333 90.0078 22.5469C90.4766 22.7552 90.8359 23.026 91.0859 23.3594C91.3359 23.6875 91.4609 24.1042 91.4609 24.6094C91.4609 24.9844 91.3802 25.3281 91.2188 25.6406C91.0625 25.9479 90.8333 26.2161 90.5312 26.4453C90.2292 26.6693 89.8672 26.8438 89.4453 26.9688C89.0286 27.0938 88.5599 27.1562 88.0391 27.1562C87.2734 27.1562 86.625 27.0208 86.0938 26.75C85.5625 26.474 85.1589 26.1224 84.8828 25.6953C84.612 25.263 84.4766 24.8151 84.4766 24.3516H86.2969C86.3177 24.7005 86.4141 24.9792 86.5859 25.1875C86.763 25.3906 86.9818 25.5391 87.2422 25.6328C87.5078 25.7214 87.7812 25.7656 88.0625 25.7656C88.401 25.7656 88.6849 25.7214 88.9141 25.6328C89.1432 25.5391 89.3177 25.4141 89.4375 25.2578C89.5573 25.0964 89.6172 24.9141 89.6172 24.7109Z" fill="#1C1B1F"/>
<path d="M218 16L216.59 17.41L221.17 22L216.59 26.59L218 28L224 22L218 16Z" fill="#1C1B1F" fill-opacity="0.6"/>
</svg>
